<svg version="1.1" baseProfile="full" xmlns="http://www.w3.org/2000/svg" width="1664" height="288">
<rect x="0" y="0" width="100%" height="100%" fill="white"/>
<text text-anchor="middle" x="64" y="48">SPO</text><line x1="96" y1="48" x2="128" y2="48" stroke="black"/><line x1="144" y1="48" x2="160" y2="48" stroke="black"/><line x1="160" y1="16" x2="160" y2="80" stroke="black"/><line x1="160" y1="16" x2="208" y2="48" stroke="black"/><line x1="160" y1="80" x2="208" y2="48" stroke="black"/><circle cx="216" cy="48" r="8" fill="none" stroke="black"/><line x1="144" y1="48" x2="128" y2="48" stroke="black"/><line x1="224" y1="48" x2="256" y2="48" stroke="black"/><text text-anchor="middle" x="192" y="144">SPLSHT</text><line x1="224" y1="144" x2="256" y2="144" stroke="black"/><text text-anchor="middle" x="192" y="240">3PT</text><line x1="224" y1="240" x2="256" y2="240" stroke="black"/><line x1="272" y1="128" x2="288" y2="128" stroke="black"/><line x1="272" y1="160" x2="288" y2="160" stroke="black"/><line x1="288" y1="112" x2="288" y2="176" stroke="black"/><line x1="288" y1="112" x2="320" y2="112" stroke="black"/><line x1="288" y1="176" x2="320" y2="176" stroke="black"/><path d="M320,112 A32,32 0 0,1 320,176" fill="none" stroke="black"/><line x1="272" y1="128" x2="256" y2="144" stroke="black"/><line x1="272" y1="160" x2="256" y2="240" stroke="black"/><line x1="352" y1="144" x2="384" y2="144" stroke="black"/><line x1="400" y1="32" x2="416" y2="32" stroke="black"/><line x1="400" y1="64" x2="416" y2="64" stroke="black"/><line x1="416" y1="16" x2="416" y2="80" stroke="black"/><line x1="416" y1="16" x2="448" y2="16" stroke="black"/><line x1="416" y1="80" x2="448" y2="80" stroke="black"/><path d="M448,16 A32,32 0 0,1 448,80" fill="none" stroke="black"/><line x1="400" y1="32" x2="256" y2="48" stroke="black"/><line x1="400" y1="64" x2="384" y2="144" stroke="black"/><line x1="480" y1="48" x2="512" y2="48" stroke="black"/><text text-anchor="middle" x="448" y="144">IN207</text><line x1="480" y1="144" x2="512" y2="144" stroke="black"/><line x1="528" y1="32" x2="544" y2="32" stroke="black"/><line x1="528" y1="64" x2="544" y2="64" stroke="black"/><line x1="544" y1="16" x2="544" y2="80" stroke="black"/><line x1="544" y1="16" x2="576" y2="16" stroke="black"/><line x1="544" y1="80" x2="576" y2="80" stroke="black"/><path d="M576,16 A32,32 0 0,1 576,80" fill="none" stroke="black"/><line x1="528" y1="32" x2="512" y2="48" stroke="black"/><line x1="528" y1="64" x2="512" y2="144" stroke="black"/><line x1="608" y1="48" x2="640" y2="48" stroke="black"/><text text-anchor="middle" x="576" y="144">IN206</text><line x1="608" y1="144" x2="640" y2="144" stroke="black"/><text text-anchor="middle" x="576" y="240">3PT</text><line x1="608" y1="240" x2="640" y2="240" stroke="black"/><line x1="656" y1="128" x2="672" y2="128" stroke="black"/><line x1="656" y1="160" x2="672" y2="160" stroke="black"/><line x1="672" y1="112" x2="672" y2="176" stroke="black"/><line x1="672" y1="112" x2="704" y2="112" stroke="black"/><line x1="672" y1="176" x2="704" y2="176" stroke="black"/><path d="M704,112 A32,32 0 0,1 704,176" fill="none" stroke="black"/><line x1="656" y1="128" x2="640" y2="144" stroke="black"/><line x1="656" y1="160" x2="640" y2="240" stroke="black"/><line x1="736" y1="144" x2="768" y2="144" stroke="black"/><line x1="784" y1="32" x2="813.7142857142857" y2="32" stroke="black"/><line x1="784" y1="64" x2="813.7142857142857" y2="64" stroke="black"/><path d="M800,16 A16,32 0 0,1 800,80" fill="none" stroke="black"/><line x1="800" y1="16" x2="832" y2="16" stroke="black"/><line x1="800" y1="80" x2="832" y2="80" stroke="black"/><path d="M832,16 A64,48 0 0,1 864,48" fill="none" stroke="black"/><path d="M832,80 A64,48 0 0,0 864,48" fill="none" stroke="black"/><line x1="784" y1="32" x2="640" y2="48" stroke="black"/><line x1="784" y1="64" x2="768" y2="144" stroke="black"/><line x1="864" y1="48" x2="896" y2="48" stroke="black"/><text text-anchor="middle" x="832" y="144">M2P</text><line x1="864" y1="144" x2="896" y2="144" stroke="black"/><text text-anchor="middle" x="832" y="240">COMPRM</text><line x1="864" y1="240" x2="896" y2="240" stroke="black"/><line x1="912" y1="128" x2="928" y2="128" stroke="black"/><line x1="912" y1="160" x2="928" y2="160" stroke="black"/><line x1="928" y1="112" x2="928" y2="176" stroke="black"/><line x1="928" y1="112" x2="960" y2="112" stroke="black"/><line x1="928" y1="176" x2="960" y2="176" stroke="black"/><path d="M960,112 A32,32 0 0,1 960,176" fill="none" stroke="black"/><line x1="912" y1="128" x2="896" y2="144" stroke="black"/><line x1="912" y1="160" x2="896" y2="240" stroke="black"/><line x1="992" y1="144" x2="1024" y2="144" stroke="black"/><text text-anchor="middle" x="960" y="240">M1P</text><line x1="992" y1="240" x2="1024" y2="240" stroke="black"/><line x1="1040" y1="128" x2="1069.7142857142858" y2="128" stroke="black"/><line x1="1040" y1="160" x2="1069.7142857142858" y2="160" stroke="black"/><path d="M1056,112 A16,32 0 0,1 1056,176" fill="none" stroke="black"/><line x1="1056" y1="112" x2="1088" y2="112" stroke="black"/><line x1="1056" y1="176" x2="1088" y2="176" stroke="black"/><path d="M1088,112 A64,48 0 0,1 1120,144" fill="none" stroke="black"/><path d="M1088,176 A64,48 0 0,0 1120,144" fill="none" stroke="black"/><line x1="1040" y1="128" x2="1024" y2="144" stroke="black"/><line x1="1040" y1="160" x2="1024" y2="240" stroke="black"/><line x1="1120" y1="144" x2="1152" y2="144" stroke="black"/><text text-anchor="middle" x="1088" y="240">IN204</text><line x1="1120" y1="240" x2="1152" y2="240" stroke="black"/><line x1="1168" y1="128" x2="1184" y2="128" stroke="black"/><line x1="1168" y1="160" x2="1184" y2="160" stroke="black"/><line x1="1184" y1="112" x2="1184" y2="176" stroke="black"/><line x1="1184" y1="112" x2="1216" y2="112" stroke="black"/><line x1="1184" y1="176" x2="1216" y2="176" stroke="black"/><path d="M1216,112 A32,32 0 0,1 1216,176" fill="none" stroke="black"/><line x1="1168" y1="128" x2="1152" y2="144" stroke="black"/><line x1="1168" y1="160" x2="1152" y2="240" stroke="black"/><line x1="1248" y1="144" x2="1280" y2="144" stroke="black"/><line x1="1296" y1="32" x2="1325.7142857142858" y2="32" stroke="black"/><line x1="1296" y1="64" x2="1325.7142857142858" y2="64" stroke="black"/><path d="M1312,16 A16,32 0 0,1 1312,80" fill="none" stroke="black"/><line x1="1312" y1="16" x2="1344" y2="16" stroke="black"/><line x1="1312" y1="80" x2="1344" y2="80" stroke="black"/><path d="M1344,16 A64,48 0 0,1 1376,48" fill="none" stroke="black"/><path d="M1344,80 A64,48 0 0,0 1376,48" fill="none" stroke="black"/><line x1="1296" y1="32" x2="896" y2="48" stroke="black"/><line x1="1296" y1="64" x2="1280" y2="144" stroke="black"/><line x1="1376" y1="48" x2="1408" y2="48" stroke="black"/><text text-anchor="middle" x="1472" y="48">PSV02</text><line x1="1440" y1="48" x2="1408" y2="48" stroke="black"/><line x1="1504" y1="48" x2="1536" y2="48" stroke="black"/><text text-anchor="middle" x="1600" y="48">PROTSEL3</text><line x1="1568" y1="48" x2="1536" y2="48" stroke="black"/><line x1="1632" y1="48" x2="1664" y2="48" stroke="black"/>
</svg>
